<svg viewBox="0 0 50 33" focusable='false' width='100%' style="max-width:33%; max-height:calc(1.85 * 33%)">
    <g transform="matrix(.56405 0 0 .56405 -35.218 -60.734)">
        <g transform="matrix(-1 0 0 1 283 -20.431)">
            <rect x="131.92" y="128.11" width="19.167" height="11.185" fill="#29ab70"/>
        </g>
        <g transform="matrix(-14.346 8.8818e-16 -8.8818e-16 -14.346 148.67 128.84)">
            <rect x="-.168" y="-.39" width="1.336" height=".78" fill="url(#i)"/>
        </g>
        <g transform="matrix(-22.155 1.4211e-14 -1.4211e-14 -22.155 152.58 144.41)">
            <rect x=".067" y="-.252" width=".865" height=".505" fill="url(#h)"/>
        </g>
        <g transform="matrix(-19.166 0 0 -19.166 81.604 159.99)">
            <rect y="-.292" width="1" height=".584" fill="url(#g)"/>
        </g>
        <g transform="matrix(-19.166 0 0 -19.166 104.76 159.99)">
            <rect y="-.292" width="1" height=".584" fill="url(#f)"/>
        </g>
        <g transform="matrix(-19.166 0 0 -19.166 127.93 159.99)">
            <rect y="-.292" width="1" height=".584" fill="url(#e)"/>
        </g>
        <g transform="matrix(-19.167 0 0 -19.167 151.08 159.99)">
            <rect y="-.292" width="1" height=".584" fill="url(#d)"/>
        </g>
        <g transform="matrix(-21.535 -2.0428e-14 2.0428e-14 -21.535 129.11 144.41)">
            <rect x=".055" y="-.26" width=".89" height=".519" fill="url(#c)"/>
        </g>
        <g transform="matrix(-21.835 -1.3323e-14 1.3323e-14 -21.835 106.1 144.41)">
            <rect x=".061" y="-.256" width=".878" height=".512" fill="url(#b)"/>
        </g>
        <g transform="matrix(-21.67 1.7764e-15 -1.7764e-15 -21.67 106.01 128.84)">
            <rect x=".058" y="-.258" width=".884" height=".516" fill="url(#a)"/>
        </g>
    </g>
    <defs>
        <linearGradient id="i" x2="1" gradientTransform="matrix(.17382 .98478 .98478 -.17382 .41305 -.49234)"
                        gradientUnits="userSpaceOnUse">
            <stop stop-color="#2c8c9d" offset="0"/>
            <stop stop-color="#298e9a" offset=".04"/>
            <stop stop-color="#129c83" offset=".39"/>
            <stop stop-color="#05a475" offset=".72"/>
            <stop stop-color="#00a770" offset="1"/>
        </linearGradient>
        <linearGradient id="h" x2="1" gradientTransform="matrix(-.89099 .45402 .45402 .89099 .9455 -.22701)"
                        gradientUnits="userSpaceOnUse">
            <stop stop-color="#2839ba" offset="0"/>
            <stop stop-color="#148cb3" offset="1"/>
        </linearGradient>
        <linearGradient id="g" x2="1" gradientTransform="matrix(-1,0,-0,1,1,0)" gradientUnits="userSpaceOnUse">
            <stop stop-color="#f6a500" offset="0"/>
            <stop stop-color="#f29100" offset="1"/>
        </linearGradient>
        <linearGradient id="f" x2="1" gradientTransform="matrix(-1 0 -0 1 1 -3.5527e-15)"
                        gradientUnits="userSpaceOnUse">
            <stop stop-color="#f29100" offset="0"/>
            <stop stop-color="#d12f5f" offset="1"/>
        </linearGradient>
        <linearGradient id="e" x2="1" gradientTransform="matrix(-1 0 -0 1 1.0001 -3.5527e-15)"
                        gradientUnits="userSpaceOnUse">
            <stop stop-color="#b4197c" offset="0"/>
            <stop stop-color="#472ead" offset="1"/>
        </linearGradient>
        <linearGradient id="d" x2="1" gradientTransform="matrix(-1 0 -0 1 1 0)" gradientUnits="userSpaceOnUse">
            <stop stop-color="#2839ba" offset="0"/>
            <stop stop-color="#3072b7" offset="1"/>
        </linearGradient>
        <linearGradient id="c" x2="1" gradientTransform="matrix(-.95982 .28063 .28063 .95982 .97997 -.14032)"
                        gradientUnits="userSpaceOnUse">
            <stop stop-color="#b4197c" offset="0"/>
            <stop stop-color="#373aac" offset="1"/>
        </linearGradient>
        <linearGradient id="b" x2="1" gradientTransform="matrix(-.93974 -.34188 -.34188 .93974 .96988 .17094)"
                        gradientUnits="userSpaceOnUse">
            <stop stop-color="#ffcb00" offset="0"/>
            <stop stop-color="#d12f5f" offset="1"/>
        </linearGradient>
        <linearGradient id="a" x2="1" gradientTransform="matrix(-.73486 -.67822 -.67822 .73486 .86746 .33912)"
                        gradientUnits="userSpaceOnUse">
            <stop stop-color="#ffcf00" offset="0"/>
            <stop stop-color="#ed743b" offset="1"/>
        </linearGradient>
    </defs>
</svg>
