<svg viewBox="0 0 43 50" focusable='false' width="100%" style="max-width:39%; max-height:calc(1.85 * 39%)">
    <g transform="matrix(0.0669232,0,0,0.0669232,-23.4777,38.0991)">
        <path d="M353.119,68.19L408.081,68.19C442.112,68.19 466.176,90.83 466.176,123.01C466.176,155.19 442.112,177.83 408.081,177.83L353.119,177.83L353.119,68.19ZM395.836,148.213L405.803,148.213C416.482,148.213 422.178,141.094 422.178,123.01C422.178,104.927 416.482,97.807 405.803,97.807L395.836,97.807L395.836,148.213ZM562.999,177.83L472.724,177.83L472.724,68.19L562.999,68.19L562.999,97.807L515.298,97.807L515.298,110.48L560.151,110.48L560.151,134.686L515.298,134.686L515.298,148.213L562.999,148.213L562.999,177.83ZM663.525,177.83L573.251,177.83L573.251,68.19L663.525,68.19L663.525,97.807L615.825,97.807L615.825,110.48L660.678,110.48L660.678,134.686L615.825,134.686L615.825,148.213L663.525,148.213L663.525,177.83ZM991.164,177.83L943.036,177.83C938.445,163.546 931.453,148.462 921.962,132.478L921.962,177.83L879.246,177.83L879.246,68.19L939.049,68.19C968.097,68.19 986.465,77.588 986.465,97.523C986.465,110.622 978.37,119.156 964.834,123.126C976.408,143.177 985.012,161.065 991.164,177.83ZM921.962,117.172L936.771,117.172C943.036,117.172 946.596,113.755 946.596,107.49C946.596,101.225 943.036,97.807 936.771,97.807L921.962,97.807L921.962,117.172ZM868.994,177.83L778.719,177.83L778.719,68.19L868.994,68.19L868.994,97.807L821.294,97.807L821.294,110.48L866.147,110.48L866.147,134.686L821.294,134.686L821.294,148.213L868.994,148.213L868.994,177.83ZM673.779,97.807L673.779,68.19L769.891,68.19L769.891,97.807C748.05,115.965 732.531,132.055 721.425,148.213L769.891,148.213L769.891,177.83L672.924,177.83L672.924,148.213C684.518,129.717 699.568,112.77 717.855,97.807L673.779,97.807Z" style="fill:white;"/>
    </g>
        <g transform="matrix(0.141162,0,0,0.141162,1.8894,-0.0721316)">
        <path d="M232.97,42.874C235.539,27.984 239.313,18.62 243.489,18.603C251.276,18.629 257.592,51.101 257.592,91.192C257.592,131.284 251.271,163.782 243.476,163.782C240.28,163.782 237.331,158.264 234.957,149.017C231.205,182.867 223.419,206.136 214.405,206.136C207.431,206.136 201.172,192.158 196.97,170.114C194.101,212.038 186.88,241.783 178.44,241.783C173.143,241.783 168.314,229.996 164.739,210.804C160.44,250.421 150.508,278.18 138.926,278.18C127.344,278.18 117.394,250.43 113.113,210.804C109.564,229.996 104.735,241.783 99.412,241.783C90.972,241.783 83.769,212.038 80.882,170.114C76.68,192.158 70.438,206.136 63.447,206.136C54.442,206.136 46.647,182.875 42.895,149.017C40.538,158.291 37.572,163.782 34.376,163.782C26.581,163.782 20.26,131.284 20.26,91.192C20.26,51.101 26.581,18.603 34.376,18.603C38.56,18.603 42.304,27.993 44.899,42.874C49.057,17.199 55.81,0.511 63.447,0.511C72.513,0.511 80.37,24.111 84.086,58.381C87.724,33.439 93.241,17.538 99.421,17.538C108.081,17.538 115.443,48.812 118.171,92.436C123.3,70.069 130.725,56.038 138.944,56.038C147.162,56.038 154.587,70.078 159.707,92.436C162.444,48.812 169.797,17.538 178.458,17.538C184.628,17.538 190.137,33.439 193.792,58.381C197.5,24.111 205.357,0.511 214.423,0.511C222.033,0.511 228.812,17.207 232.97,42.874ZM0.089,84.053C0.089,66.131 3.673,51.599 8.096,51.599C12.519,51.599 16.103,66.131 16.103,84.053C16.103,101.974 12.519,116.507 8.096,116.507C3.673,116.507 0.089,101.974 0.089,84.053ZM261.743,84.053C261.743,66.131 265.327,51.599 269.75,51.599C274.172,51.599 277.757,66.131 277.757,84.053C277.757,101.974 274.172,116.507 269.75,116.507C265.327,116.507 261.743,101.974 261.743,84.053Z" style="fill:rgb(162,56,255);"/>
    </g>
</svg>
