<svg viewBox="0 0 43 50" focusable='false' width='100%' style="max-width:33%; max-height:calc(1.85 * 33%)">
    <g transform="matrix(0.0827554,0,0,0.0827554,-22.8061,-16.3777)">
        <path d="M547.005,197.905L275.584,197.905L275.584,802.095L437.632,802.095C452.722,802.095 464.953,789.863 464.953,774.773L464.953,658.713L505.526,658.713C703.909,658.713 785.07,546.905 785.07,416.137C785.07,254.728 662.431,197.905 547.005,197.905Z" style="fill:url(#_Linear1);"/>
        <clipPath id="_clip2">
            <path d="M547.005,197.905L275.584,197.905L275.584,802.095L437.632,802.095C452.722,802.095 464.953,789.863 464.953,774.773L464.953,658.713L505.526,658.713C703.909,658.713 785.07,546.905 785.07,416.137C785.07,254.728 662.431,197.905 547.005,197.905Z"/>
        </clipPath>
        <g clip-path="url(#_clip2)">
            <clipPath id="_clip3">
                <path d="M513.641,-47.797L522.405,-45.225C535.379,-41.418 546.423,-32.827 553.302,-21.188L565.711,-0.194C572.591,11.445 583.634,20.037 596.607,23.844L620.007,30.71C632.98,34.517 644.023,43.108 650.903,54.748L663.312,75.741C670.191,87.38 681.235,95.972 694.208,99.779L717.608,106.645C730.582,110.451 741.625,119.043 748.505,130.682L760.913,151.676C767.793,163.315 778.836,171.907 791.81,175.713L815.209,182.58C828.183,186.386 839.227,194.978 846.105,206.617L858.574,227.711C865.418,239.29 876.384,247.855 889.275,251.691L912.955,258.738C925.664,262.52 936.51,270.9 943.374,282.245L948.101,290.057C959.552,308.98 958.134,333.008 944.536,350.454L913.192,390.667C895.096,413.885 861.611,418.05 838.378,399.975L434.522,85.77C411.274,67.683 407.091,34.175 425.178,10.927L456.53,-29.371C469.978,-46.656 492.626,-53.963 513.641,-47.797Z"/>
            </clipPath>
            <g clip-path="url(#_clip3)">
                <rect x="413.936" y="197.905" width="371.134" height="213.311" style="fill:url(#_Linear4);fill-rule:nonzero;"/>
            </g>
            <clipPath id="_clip5">
                <path d="M856.188,278.127C859.137,279.653 862.241,280.911 865.467,281.872L889.092,288.914C901.841,292.713 912.71,301.141 919.564,312.542L924.27,320.368C935.648,339.292 934.188,363.271 920.598,380.676L889.209,420.869C871.089,444.072 837.596,448.204 814.38,430.102L410.872,115.465C387.644,97.353 383.497,63.84 401.609,40.612L433.004,0.349C446.471,-16.922 469.127,-24.205 490.134,-18.016L498.897,-15.434C511.866,-11.613 522.9,-3.009 529.768,8.637L542.153,29.644C549.02,41.29 560.054,49.894 573.023,53.715L596.416,60.606C609.385,64.427 620.419,73.031 627.286,84.678L639.672,105.684C646.539,117.331 657.572,125.934 670.542,129.755L693.935,136.646C706.903,140.467 717.938,149.071 724.805,160.717L737.19,181.724C744.058,193.371 755.092,201.975 768.061,205.795L791.453,212.687C804.422,216.508 815.456,225.111 822.323,236.758L834.759,257.849C839.887,266.546 847.339,273.547 856.188,278.127Z"/>
            </clipPath>
            <g clip-path="url(#_clip5)">
                <rect x="390.332" y="197.905" width="394.738" height="243.474" style="fill:url(#_Linear6);fill-rule:nonzero;"/>
            </g>
            <clipPath id="_clip7">
                <path d="M466.628,11.766L475.388,14.357C488.353,18.192 499.378,26.808 506.232,38.461L518.596,59.481C525.449,71.136 536.475,79.751 549.439,83.586L572.824,90.503C585.789,94.338 596.813,102.953 603.668,114.607L616.031,135.627C622.886,147.281 633.91,155.896 646.875,159.731L670.26,166.648C683.226,170.483 694.25,179.099 701.104,190.753L713.468,211.773C720.321,223.427 731.347,232.042 744.312,235.877L767.696,242.794C780.661,246.629 791.686,255.245 798.54,266.899L810.943,287.986C817.773,299.6 828.747,308.198 841.657,312.052L865.229,319.089C878.018,322.907 888.91,331.382 895.754,342.84L900.438,350.679C911.745,369.603 910.243,393.535 896.658,410.897L865.226,451.071C847.082,474.259 813.58,478.358 790.381,460.228L387.222,145.161C364.013,127.023 359.902,93.506 378.04,70.298L409.479,30.068C422.964,12.812 445.628,5.554 466.628,11.766Z"/>
            </clipPath>
            <g clip-path="url(#_clip7)">
                <rect x="366.727" y="197.905" width="418.343" height="273.636" style="fill:url(#_Linear8);fill-rule:nonzero;"/>
            </g>
            <clipPath id="_clip9">
                <path d="M511.408,57.262L520.164,59.862C533.126,63.711 544.142,72.339 550.982,84L563.323,105.033C570.165,116.694 581.181,125.322 594.141,129.171L617.519,136.113C630.479,139.962 641.494,148.59 648.336,160.251L660.677,181.285C667.519,192.946 678.534,201.574 691.494,205.422L714.872,212.365C727.833,216.213 738.848,224.841 745.689,236.502L758.03,257.536C764.872,269.197 775.887,277.825 788.848,281.674L812.226,288.616C825.187,292.465 836.201,301.092 843.043,312.754L855.413,333.838C862.237,345.469 873.214,354.083 886.134,357.947L909.65,364.979C922.479,368.815 933.396,377.337 940.23,388.852L944.892,396.705C956.128,415.629 954.584,439.512 941.006,456.834L909.527,496.987C891.36,520.16 857.85,524.227 834.668,506.069L431.857,190.57C408.668,172.408 404.593,138.886 422.756,115.697L454.239,75.502C467.743,58.261 490.414,51.027 511.408,57.262Z"/>
            </clipPath>
            <g clip-path="url(#_clip9)">
                <rect x="411.407" y="197.905" width="373.663" height="319.513" style="fill:url(#_Linear10);fill-rule:nonzero;"/>
            </g>
            <clipPath id="_clip11">
                <path d="M419.617,71.329L428.371,73.939C441.327,77.802 452.333,86.441 459.162,98.11L471.48,119.157C478.309,130.825 489.315,139.465 502.271,143.328L525.642,150.295C538.598,154.158 549.604,162.798 556.433,174.467L568.751,195.514C575.58,207.182 586.586,215.822 599.542,219.685L622.912,226.652C635.869,230.515 646.875,239.155 653.704,250.823L666.021,271.87C672.851,283.539 683.856,292.179 696.813,296.042L720.183,303.009C733.14,306.872 744.146,315.512 750.975,327.18L763.313,348.261C770.129,359.91 781.109,368.54 794.039,372.413L817.502,379.44C830.371,383.295 841.311,391.864 848.135,403.435L852.774,411.301C863.938,430.226 862.354,454.062 848.781,471.341L817.258,511.475C799.067,534.634 765.549,538.666 742.385,520.482L339.921,204.551C316.751,186.364 312.713,152.837 330.901,129.668L362.427,89.507C375.95,72.281 398.629,65.072 419.617,71.329Z"/>
            </clipPath>
            <g clip-path="url(#_clip11)">
                <rect x="319.517" y="197.905" width="465.553" height="333.961" style="fill:url(#_Linear12);fill-rule:nonzero;"/>
            </g>
            <clipPath id="_clip13">
                <path d="M348.239,-9.373L356.632,-5.767C369.054,-0.429 378.986,9.427 384.417,21.808L394.215,44.14C399.647,56.52 409.579,66.376 422,71.714L444.406,81.341C456.829,86.678 466.76,96.534 472.192,108.915L481.99,131.246C487.421,143.627 497.353,153.483 509.775,158.82L532.181,168.447C544.603,173.785 554.534,183.641 559.967,196.021L569.764,218.354C575.195,230.734 585.127,240.59 597.55,245.928L619.955,255.555C632.377,260.892 642.309,270.748 647.74,283.129L657.554,305.496C662.977,317.856 672.884,327.7 685.277,333.044L707.769,342.741C720.104,348.06 729.979,357.838 735.417,370.122L739.114,378.472C748.013,398.563 743.678,422.054 728.195,437.646L692.236,473.859C671.486,494.755 637.727,494.879 616.824,474.135L253.652,113.725C232.745,92.977 232.617,59.208 253.365,38.301L289.33,2.061C304.756,-13.484 328.118,-18.018 348.239,-9.373Z"/>
            </clipPath>
            <g clip-path="url(#_clip13)">
                <rect x="275.584" y="197.905" width="468.101" height="291.707" style="fill:url(#_Linear14);fill-rule:nonzero;"/>
            </g>
            <clipPath id="_clip15">
                <path d="M387.372,120.278L396.274,122.327C409.45,125.359 420.982,133.283 428.538,144.494L442.167,164.717C449.723,175.929 461.255,183.852 474.431,186.885L498.196,192.354C511.372,195.387 522.904,203.311 530.461,214.522L544.09,234.745C551.646,245.956 563.178,253.88 576.354,256.912L600.118,262.382C613.294,265.415 624.827,273.338 632.383,284.55L646.012,304.772C653.567,315.984 665.101,323.907 678.276,326.94L702.041,332.41C715.217,335.442 726.749,343.366 734.305,354.578L747.945,374.816C755.494,386.018 767.014,393.938 780.177,396.976L803.989,402.473C817.121,405.504 828.618,413.395 836.169,424.558L841.286,432.123C853.578,450.292 853.49,474.135 841.065,492.213L812.152,534.281C795.471,558.554 762.272,564.709 737.997,548.03L316.294,258.292C292.018,241.611 285.859,208.409 302.539,184.132L331.452,142.05C343.854,124 366.03,115.366 387.372,120.278Z"/>
            </clipPath>
            <g clip-path="url(#_clip15)">
                <rect x="293.159" y="197.905" width="491.911" height="359.506" style="fill:url(#_Linear16);fill-rule:nonzero;"/>
            </g>
            <clipPath id="_clip17">
                <path d="M409.187,79.956L417.496,83.751C429.794,89.369 439.5,99.448 444.649,111.948L453.938,134.497C459.088,146.998 468.793,157.076 481.091,162.694L503.273,172.826C515.57,178.443 525.276,188.522 530.427,201.023L539.715,223.571C544.865,236.072 554.57,246.151 566.868,251.769L589.05,261.901C601.349,267.518 611.054,277.597 616.203,290.098L625.492,312.646C630.643,325.147 640.348,335.226 652.646,340.843L674.827,350.976C687.125,356.593 696.831,366.672 701.98,379.173L711.277,401.739C716.422,414.229 726.115,424.302 738.399,429.922L760.623,440.09C772.878,445.698 782.556,455.737 787.71,468.189L791.203,476.628C799.595,496.896 794.719,520.235 778.915,535.449L742.142,570.852C720.924,591.277 687.165,590.639 666.736,569.424L311.833,200.877C291.402,179.661 292.039,145.898 313.256,125.467L350.033,90.051C365.808,74.86 389.267,70.857 409.187,79.956Z"/>
            </clipPath>
            <g clip-path="url(#_clip17)">
                <rect x="296.917" y="197.905" width="488.153" height="387.858" style="fill:url(#_Linear18);fill-rule:nonzero;"/>
            </g>
            <clipPath id="_clip19">
                <path d="M372.604,130.892L381.353,133.521C394.301,137.412 405.289,146.075 412.092,157.758L424.364,178.832C431.168,190.516 442.155,199.179 455.104,203.07L478.458,210.088C491.407,213.979 502.395,222.643 509.198,234.326L521.469,255.4C528.273,267.083 539.261,275.747 552.209,279.638L575.564,286.656C588.513,290.547 599.5,299.21 606.304,310.894L618.575,331.968C625.379,343.651 636.366,352.315 649.315,356.206L672.67,363.224C685.618,367.115 696.605,375.778 703.409,387.462L715.682,408.536C722.485,420.219 733.473,428.883 746.421,432.773L769.775,439.792C782.724,443.683 793.711,452.346 800.515,464.03L805.111,471.923C816.133,490.849 814.464,514.588 800.903,531.785L769.29,571.878C751.053,595.008 717.518,598.974 694.388,580.735L292.62,263.942C269.49,245.704 265.524,212.169 283.762,189.039L315.376,148.946C328.936,131.749 351.631,124.589 372.604,130.892Z"/>
            </clipPath>
            <g clip-path="url(#_clip19)">
                <rect x="275.584" y="197.905" width="509.486" height="394.286" style="fill:url(#_Linear20);fill-rule:nonzero;"/>
            </g>
            <clipPath id="_clip21">
                <path d="M291.744,54.513L300.188,57.997C312.687,63.153 322.76,72.863 328.371,85.165L338.492,107.351C344.104,119.652 354.177,129.363 366.675,134.519L389.219,143.819C401.717,148.976 411.791,158.686 417.402,170.987L427.523,193.174C433.134,205.475 443.208,215.186 455.707,220.342L478.25,229.642C490.749,234.798 500.822,244.509 506.434,256.81L516.554,278.997C522.164,291.298 532.239,301.009 544.737,306.165L567.281,315.465C579.779,320.622 589.853,330.333 595.464,342.633L605.585,364.82C611.196,377.121 621.271,386.832 633.769,391.988L656.312,401.289C668.811,406.445 678.884,416.155 684.495,428.457L688.286,436.767C697.376,456.692 693.36,480.149 678.161,495.916L642.727,532.675C622.284,553.882 588.521,554.501 567.314,534.059L198.955,178.972C177.748,158.529 177.129,124.766 197.571,103.56L233.006,66.801C248.205,51.034 271.499,46.161 291.744,54.513Z"/>
            </clipPath>
            <g clip-path="url(#_clip21)">
                <rect x="275.584" y="197.905" width="417.514" height="351.089" style="fill:url(#_Linear22);fill-rule:nonzero;"/>
            </g>
            <clipPath id="_clip23">
                <path d="M353.704,163.004L362.452,165.632C375.4,169.523 386.387,178.187 393.191,189.871L405.463,210.944C412.267,222.628 423.254,231.292 436.203,235.182L459.558,242.2C472.506,246.091 483.493,254.755 490.297,266.438L502.568,287.512C509.373,299.196 520.36,307.859 533.309,311.75L556.663,318.768C569.611,322.659 580.599,331.323 587.402,343.006L599.675,364.08C606.479,375.763 617.466,384.427 630.414,388.318L653.769,395.336C666.717,399.227 677.704,407.891 684.508,419.574L696.78,440.647C703.584,452.331 714.571,460.995 727.52,464.886L750.874,471.904C763.822,475.795 774.81,484.458 781.613,496.142L786.211,504.036C797.231,522.961 795.563,546.7 782.003,563.897L750.39,603.99C732.151,627.12 698.616,631.086 675.486,612.848L273.719,296.054C250.589,277.816 246.624,244.281 264.861,221.151L296.475,181.058C310.035,163.861 332.729,156.701 353.704,163.004Z"/>
            </clipPath>
            <g clip-path="url(#_clip23)">
                <rect x="275.584" y="197.905" width="509.486" height="426.398" style="fill:url(#_Linear24);fill-rule:nonzero;"/>
            </g>
            <clipPath id="_clip25">
                <path d="M281.544,74.971L289.842,78.79C302.124,84.444 311.8,94.551 316.914,107.066L326.137,129.641C331.25,142.157 340.927,152.264 353.208,157.917L375.361,168.114C387.643,173.767 397.319,183.874 402.433,196.39L411.656,218.965C416.769,231.481 426.445,241.587 438.727,247.241L460.879,257.438C473.161,263.091 482.837,273.197 487.951,285.713L497.174,308.289C502.288,320.805 511.964,330.911 524.245,336.564L546.397,346.761C558.68,352.415 568.355,362.521 573.47,375.037L582.692,397.612C587.806,410.128 597.482,420.235 609.764,425.888L631.916,436.085C644.198,441.738 653.874,451.845 658.987,464.361L662.442,472.817C670.726,493.091 665.773,516.367 649.954,531.513L613.074,566.821C591.798,587.191 558.037,586.456 537.667,565.181L183.84,195.61C163.471,174.333 164.205,140.573 185.481,120.203L222.361,84.894C238.181,69.749 261.65,65.814 281.544,74.971Z"/>
            </clipPath>
            <g clip-path="url(#_clip25)">
                <rect x="275.584" y="197.905" width="390.822" height="383.726" style="fill:url(#_Linear26);fill-rule:nonzero;"/>
            </g>
            <clipPath id="_clip27">
                <path d="M323.374,195.116L332.122,197.745C345.07,201.636 356.058,210.299 362.861,221.983L375.133,243.056C381.938,254.74 392.925,263.403 405.873,267.294L429.228,274.313C442.176,278.204 453.163,286.867 459.967,298.551L472.239,319.624C479.043,331.308 490.03,339.971 502.979,343.862L526.333,350.88C539.281,354.771 550.269,363.435 557.072,375.118L569.345,396.192C576.148,407.875 587.136,416.539 600.084,420.43L623.438,427.448C636.387,431.339 647.374,440.002 654.179,451.686L666.45,472.76C673.254,484.443 684.241,493.107 697.189,496.998L720.545,504.016C733.493,507.907 744.48,516.57 751.284,528.254L755.881,536.147C766.901,555.073 765.233,578.812 751.673,596.01L720.06,636.103C701.821,659.232 668.286,663.198 645.156,644.96L243.389,328.166C220.259,309.928 216.293,276.393 234.531,253.263L266.145,213.17C279.705,195.973 302.4,188.813 323.374,195.116Z"/>
            </clipPath>
            <g clip-path="url(#_clip27)">
                <rect x="275.584" y="197.905" width="487.542" height="458.51" style="fill:url(#_Linear28);fill-rule:nonzero;"/>
            </g>
            <clipPath id="_clip29">
                <path d="M335.488,184.989L343.906,188.536C356.366,193.786 366.366,203.572 371.885,215.915L381.839,238.177C387.358,250.52 397.359,260.305 409.818,265.555L432.292,275.024C444.751,280.274 454.751,290.06 460.271,302.402L470.225,324.665C475.744,337.007 485.744,346.793 498.204,352.043L520.677,361.512C533.137,366.762 543.137,376.548 548.656,388.891L558.61,411.153C564.129,423.495 574.13,433.281 586.589,438.531L609.063,448C621.521,453.25 631.522,463.036 637.041,475.378L646.995,497.641C652.515,509.983 661.54,524.75 674,530L698,550C710.459,555.25 718.48,551.657 724,564L730,570C738.939,589.992 733.903,613.624 718.587,629.276L682.878,665.77C662.276,686.822 628.51,687.188 607.457,666.588L241.769,308.75C220.716,288.149 220.35,254.382 240.951,233.33L276.66,196.837C291.977,181.184 315.306,176.485 335.488,184.989Z"/>
            </clipPath>
            <g clip-path="url(#_clip29)">
                <rect x="275.584" y="197.905" width="458.834" height="483.897" style="fill:url(#_Linear30);fill-rule:nonzero;"/>
            </g>
            <clipPath id="_clip31">
                <path d="M298.758,227.228L307.507,229.857C320.455,233.748 331.442,242.411 338.246,254.095L350.518,275.168C357.322,286.852 368.309,295.516 381.257,299.407L404.612,306.425C417.561,310.315 428.548,318.979 435.352,330.663L447.624,351.736C454.427,363.42 465.415,372.083 478.363,375.974L501.718,382.993C514.666,386.883 525.653,395.547 532.457,407.23L544.729,428.304C551.533,439.988 562.521,448.651 575.469,452.542L598.823,459.56C611.771,463.451 622.759,472.115 629.563,483.798L641.835,504.872C648.639,516.557 659.626,525.219 672.574,529.11L695.929,536.128C708.877,540.019 719.864,548.683 726.669,560.366L731.266,568.26C742.286,587.186 740.617,610.924 727.058,628.121L695.444,668.215C677.206,691.345 643.671,695.31 620.541,677.072L218.773,360.278C195.644,342.041 191.678,308.505 209.916,285.375L241.529,245.282C255.089,228.085 277.785,220.925 298.758,227.228Z"/>
            </clipPath>
            <g clip-path="url(#_clip31)">
                <rect x="275.584" y="224.969" width="462.927" height="463.559" style="fill:url(#_Linear32);fill-rule:nonzero;"/>
            </g>
            <clipPath id="_clip33">
                <path d="M300.824,208.54L309.194,212.198C321.583,217.613 331.453,227.531 336.807,239.946L346.465,262.338C351.819,274.753 361.689,284.671 374.078,290.086L396.423,299.853C408.812,305.268 418.682,315.186 424.036,327.6L433.694,349.993C439.048,362.408 448.918,372.326 461.307,377.74L483.652,387.507C496.04,392.922 505.91,402.84 511.265,415.255L520.922,437.647C526.276,450.062 536.146,459.98 548.535,465.395L570.88,475.162C583.269,480.577 593.139,490.494 598.493,502.909L608.15,525.302C613.505,537.717 619.611,554.585 632,560L658.108,562.816C670.497,568.23 680.367,578.148 685.722,590.563L689.339,598.951C698.013,619.062 693.511,642.429 677.987,657.877L641.796,693.893C620.917,714.669 587.148,714.587 566.371,693.709L205.47,331.044C184.692,310.166 184.774,276.397 205.653,255.62L241.844,219.605C257.368,204.157 280.757,199.769 300.824,208.54Z"/>
            </clipPath>
            <g clip-path="url(#_clip33)">
                <rect x="275.584" y="204.074" width="418.118" height="505.347" style="fill:url(#_Linear34);fill-rule:nonzero;"/>
            </g>
            <clipPath id="_clip35">
                <path d="M274.143,259.34L282.891,261.969C295.839,265.86 306.827,274.523 313.631,286.207L325.903,307.281C332.707,318.964 343.694,327.627 356.642,331.519L379.997,338.537C392.945,342.428 403.933,351.091 410.736,362.775L423.008,383.849C429.812,395.532 440.799,404.195 453.748,408.086L477.103,415.104C490.051,418.996 501.038,427.659 507.842,439.343L520.114,460.416C526.918,472.1 537.905,480.763 550.854,484.654L574.208,491.672C587.156,495.563 598.144,504.227 604.947,515.91L617.22,536.984C624.023,548.668 635.011,557.331 647.959,561.222L671.313,568.24C684.262,572.131 695.249,580.795 702.053,592.479L706.65,600.372C717.671,619.297 716.002,643.036 702.442,660.233L670.828,700.327C652.591,723.456 619.056,727.422 595.926,709.185L194.158,392.39C171.028,374.152 167.063,340.617 185.301,317.488L216.914,277.395C230.474,260.197 253.169,253.038 274.143,259.34Z"/>
            </clipPath>
            <g clip-path="url(#_clip35)">
                <rect x="275.584" y="257.081" width="438.311" height="463.558" style="fill:url(#_Linear36);fill-rule:nonzero;"/>
            </g>
            <clipPath id="_clip37">
                <path d="M335.723,372.197L344.762,373.518C358.14,375.472 370.276,382.435 378.716,392.998L393.939,412.049C402.379,422.611 414.516,429.574 427.894,431.529L452.024,435.055C465.403,437.009 477.539,443.972 485.979,454.535L501.202,473.586C509.643,484.148 521.779,491.111 535.157,493.066L559.287,496.592C572.666,498.546 584.802,505.509 593.242,516.071L608.465,535.123C616.905,545.686 629.042,552.648 642.42,554.604L666.55,558.129C679.929,560.083 692.065,567.046 700.505,577.608L715.728,596.66C724.168,607.223 736.305,614.186 749.683,616.141L773.813,619.666C787.191,621.62 799.328,628.583 807.768,639.146L813.47,646.282C827.142,663.392 828.964,687.119 818.065,706.115L792.658,750.402C778,775.951 745.406,784.78 719.857,770.123L276.064,515.518C250.515,500.86 241.686,468.266 256.344,442.716L281.751,398.43C292.649,379.434 314.053,369.03 335.723,372.197Z"/>
            </clipPath>
            <g clip-path="url(#_clip37)">
                <rect x="275.584" y="371.635" width="509.486" height="405.57" style="fill:url(#_Linear38);fill-rule:nonzero;"/>
            </g>
            <clipPath id="_clip39">
                <path d="M249.527,291.452L258.276,294.081C271.224,297.972 282.211,306.636 289.015,318.319L301.287,339.393C308.091,351.076 319.078,359.74 332.027,363.631L355.381,370.649C368.33,374.54 379.317,383.203 386.121,394.887L398.393,415.96C405.197,427.644 416.184,436.308 429.132,440.199L452.487,447.217C465.435,451.108 476.422,459.771 483.227,471.455L495.499,492.528C502.302,504.212 513.289,512.875 526.238,516.768L549.593,523.784C562.541,527.676 573.528,536.339 580.332,548.022L592.604,569.096C599.408,580.779 610.396,589.443 623.344,593.334L646.698,600.353C659.646,604.243 670.634,612.907 677.438,624.591L682.034,632.484C693.056,651.409 691.387,675.148 677.826,692.346L646.213,732.438C627.976,755.568 594.44,759.534 571.311,741.297L169.543,424.502C146.413,406.265 142.447,372.729 160.685,349.6L192.299,309.507C205.859,292.31 228.554,285.149 249.527,291.452Z"/>
            </clipPath>
            <g clip-path="url(#_clip39)">
                <rect x="275.584" y="289.193" width="413.696" height="463.559" style="fill:url(#_Linear40);fill-rule:nonzero;"/>
            </g>
            <clipPath id="_clip41">
                <path d="M251.151,276.939L259.624,280.354C272.163,285.409 282.315,295.038 288.026,307.293L298.326,329.397C304.037,341.652 314.189,351.281 326.729,356.336L349.347,365.453C361.887,370.508 372.039,380.137 377.75,392.392L388.05,414.496C393.761,426.751 403.913,436.38 416.453,441.435L439.07,450.552C451.61,455.607 461.762,465.236 467.473,477.491L477.773,499.595C483.484,511.851 493.636,521.479 506.176,526.534L528.794,535.651C541.334,540.706 551.485,550.335 557.196,562.59L567.497,584.694C573.208,596.949 583.359,606.578 595.899,611.633L618.518,620.75C631.058,625.805 641.209,635.434 646.92,647.688L650.778,655.969C660.028,675.819 656.203,699.308 641.133,715.197L605.997,752.242C585.727,773.614 551.97,774.507 530.599,754.237L159.374,402.146C138.002,381.876 137.109,348.12 157.379,326.748L192.515,289.703C207.586,273.813 230.839,268.751 251.151,276.939Z"/>
            </clipPath>
            <g clip-path="url(#_clip41)">
                <rect x="275.584" y="273.069" width="380.186" height="495.805" style="fill:url(#_Linear42);fill-rule:nonzero;"/>
            </g>
            <clipPath id="_clip43">
                <path d="M189.419,365.431L198.528,366.122C212.01,367.144 224.6,373.249 233.752,383.201L250.259,401.151C259.411,411.103 272.001,417.207 285.482,418.23L309.799,420.074C323.281,421.097 335.871,427.201 345.023,437.153L361.53,455.104C370.682,465.055 383.272,471.16 396.753,472.183L421.07,474.027C434.552,475.049 447.142,481.154 456.294,491.106L472.801,509.056C481.953,519.008 494.543,525.112 508.024,526.135L532.341,527.979C545.822,529.002 558.413,535.106 567.564,545.059L584.072,563.009C593.224,572.961 605.814,579.065 619.296,580.088L643.612,581.933C657.094,582.955 669.684,589.06 678.836,599.011L685.02,605.735C699.844,621.855 703.307,645.399 693.752,665.105L671.476,711.047C658.624,737.551 626.721,748.619 600.217,735.768L139.841,512.542C113.337,499.691 102.269,467.788 115.121,441.284L137.396,395.342C146.951,375.636 167.582,363.774 189.419,365.431Z"/>
            </clipPath>
            <g clip-path="url(#_clip43)">
                <rect x="275.584" y="365.277" width="423.513" height="375.846" style="fill:url(#_Linear44);fill-rule:nonzero;"/>
            </g>
            <clipPath id="_clip45">
                <path d="M224.912,323.564L233.66,326.193C246.609,330.084 257.596,338.748 264.4,350.431L276.672,371.505C283.476,383.188 294.463,391.852 307.411,395.743L330.766,402.761C343.714,406.652 354.702,415.315 361.505,426.999L373.777,448.073C380.581,459.756 391.568,468.42 404.517,472.311L427.872,479.329C440.82,483.22 451.807,491.883 458.611,503.566L470.883,524.641C477.687,536.324 488.674,544.987 501.622,548.879L524.978,555.896C537.926,559.788 548.913,568.451 555.717,580.135L567.988,601.208C574.792,612.892 585.779,621.556 598.728,625.446L622.083,632.465C635.031,636.355 646.019,645.019 652.822,656.702L657.419,664.597C668.44,683.521 666.771,707.261 653.211,724.458L621.598,764.551C603.36,787.681 569.825,791.646 546.695,773.408L144.927,456.615C121.797,438.377 117.832,404.842 136.07,381.712L167.683,341.619C181.243,324.421 203.938,317.262 224.912,323.564Z"/>
            </clipPath>
            <g clip-path="url(#_clip45)">
                <rect x="275.584" y="321.305" width="389.08" height="463.558" style="fill:url(#_Linear46);fill-rule:nonzero;"/>
            </g>
            <clipPath id="_clip47">
                <path d="M228.324,304.116L236.674,307.82C249.033,313.302 258.849,323.273 264.136,335.717L273.673,358.161C278.96,370.605 288.776,380.576 301.135,386.058L323.427,395.946C335.786,401.427 345.602,411.398 350.889,423.842L360.425,446.287C365.712,458.73 375.528,468.702 387.888,474.184L410.18,484.071C422.539,489.553 432.354,499.524 437.642,511.968L447.178,534.412C452.465,546.855 462.281,556.827 474.64,562.309L496.932,572.196C509.291,577.679 519.107,587.649 524.395,600.093L533.931,622.538C539.218,634.981 549.034,644.952 561.393,650.435L583.685,660.322C596.044,665.804 605.86,675.775 611.147,688.219L614.72,696.626C623.283,716.782 618.655,740.126 603.048,755.489L566.663,791.308C545.672,811.972 511.904,811.707 491.24,790.716L132.307,426.103C111.644,405.112 111.909,371.344 132.899,350.681L169.285,314.862C184.892,299.498 208.305,295.237 228.324,304.116Z"/>
            </clipPath>
            <g clip-path="url(#_clip47)">
                <rect x="275.584" y="299.534" width="343.384" height="502.561" style="fill:url(#_Linear48);fill-rule:nonzero;"/>
            </g>
            <clipPath id="_clip49">
                <path d="M163.5,403.312L172.598,404.136C186.063,405.355 198.563,411.643 207.568,421.727L223.812,439.917C232.817,450.001 245.316,456.289 258.782,457.508L283.069,459.708C296.534,460.927 309.034,467.214 318.039,477.299L334.283,495.488C343.288,505.573 355.788,511.86 369.253,513.081L393.54,515.279C407.005,516.498 419.505,522.786 428.511,532.871L444.754,551.061C453.76,561.145 466.259,567.433 479.724,568.651L504.012,570.851C517.477,572.07 529.977,578.358 538.981,588.442L555.226,606.632C564.23,616.717 576.73,623.004 590.195,624.224L614.482,626.423C627.948,627.642 640.447,633.93 649.453,644.015L655.538,650.828C670.125,667.163 673.244,690.755 663.402,710.319L640.458,755.931C627.221,782.244 595.159,792.845 568.846,779.608L111.778,549.684C85.464,536.447 74.864,504.386 88.101,478.072L111.046,432.46C120.887,412.896 141.689,401.337 163.5,403.312Z"/>
            </clipPath>
            <g clip-path="url(#_clip49)">
                <rect x="275.584" y="403.094" width="393.508" height="382.215" style="fill:url(#_Linear50);fill-rule:nonzero;"/>
            </g>
            <clipPath id="_clip51">
                <path d="M200.296,355.676L209.045,358.305C221.993,362.196 232.98,370.86 239.784,382.543L252.056,403.617C258.859,415.301 269.848,423.964 282.796,427.855L306.15,434.873C319.099,438.764 330.086,447.428 336.89,459.111L349.162,480.185C355.966,491.869 366.953,500.532 379.901,504.423L403.256,511.441C416.205,515.332 427.192,523.995 433.996,535.679L446.268,556.753C453.071,568.437 464.059,577.1 477.007,580.99L500.362,588.009C513.31,591.899 524.297,600.563 531.102,612.247L543.373,633.32C550.177,645.004 561.164,653.668 574.112,657.559L597.468,664.576C610.416,668.468 621.403,677.131 628.207,688.814L632.804,696.708C643.824,715.634 642.156,739.373 628.596,756.57L596.982,796.663C578.744,819.793 545.209,823.759 522.078,805.521L120.312,488.727C97.182,470.489 93.216,436.954 111.454,413.824L143.068,373.731C156.628,356.534 179.323,349.374 200.296,355.676Z"/>
            </clipPath>
            <g clip-path="url(#_clip51)">
                <rect x="275.584" y="353.417" width="364.465" height="448.678" style="fill:url(#_Linear52);fill-rule:nonzero;"/>
            </g>
            <clipPath id="_clip53">
                <path d="M206.334,358.623L214.706,362.278C227.097,367.688 236.97,377.603 242.329,390.016L251.995,412.404C257.354,424.817 267.228,434.731 279.619,440.142L301.967,449.9C314.358,455.311 324.231,465.225 329.59,477.638L339.256,500.026C344.616,512.44 354.489,522.354 366.88,527.764L389.229,537.522C401.619,542.933 411.493,552.847 416.852,565.26L426.518,587.648C431.877,600.062 441.75,609.976 454.141,615.386L476.49,625.145C488.88,630.555 498.754,640.469 504.113,652.882L513.779,675.271C519.138,687.684 529.012,697.598 541.402,703.008L563.751,712.766C576.142,718.177 586.015,728.091 591.374,740.503L594.995,748.89C603.676,768.996 599.183,792.366 583.664,807.819L547.487,843.849C526.616,864.633 492.848,864.563 472.063,843.692L111.025,481.163C90.24,460.292 90.31,426.523 111.181,405.739L147.358,369.71C162.876,354.256 186.264,349.859 206.334,358.623Z"/>
            </clipPath>
            <g clip-path="url(#_clip53)">
                <rect x="275.584" y="354.165" width="323.781" height="447.93" style="fill:url(#_Linear54);fill-rule:nonzero;"/>
            </g>
            <clipPath id="_clip55">
                <path d="M175.681,387.789L184.43,390.417C197.378,394.309 208.365,402.972 215.169,414.656L227.441,435.729C234.245,447.413 245.232,456.076 258.18,459.967L281.535,466.985C294.483,470.876 305.471,479.54 312.274,491.223L324.546,512.297C331.35,523.98 342.337,532.644 355.286,536.535L378.641,543.553C391.589,547.444 402.576,556.107 409.38,567.791L421.652,588.865C428.456,600.549 439.443,609.212 452.392,613.103L475.746,620.121C488.695,624.012 499.682,632.676 506.485,644.359L518.758,665.433C525.562,677.116 536.549,685.779 549.497,689.671L572.852,696.688C585.8,700.58 596.787,709.243 603.591,720.927L608.188,728.82C619.209,747.746 617.54,771.484 603.98,788.682L572.367,828.775C554.129,851.905 520.594,855.871 497.464,837.633L95.696,520.839C72.566,502.601 68.601,469.066 86.838,445.936L118.452,405.843C132.012,388.646 154.708,381.486 175.681,387.789Z"/>
            </clipPath>
            <g clip-path="url(#_clip55)">
                <rect x="275.584" y="385.53" width="339.849" height="416.565" style="fill:url(#_Linear56);fill-rule:nonzero;"/>
            </g>
            <clipPath id="_clip57">
                <path d="M103.165,297.101L111.385,301.084C123.552,306.98 133.026,317.278 137.89,329.893L146.663,352.646C151.527,365.261 161,375.558 173.167,381.454L195.113,392.089C207.28,397.985 216.753,408.282 221.618,420.897L230.391,443.65C235.255,456.266 244.729,466.563 256.896,472.458L278.841,483.093C291.008,488.989 300.481,499.286 305.346,511.901L314.119,534.654C318.983,547.27 328.457,557.566 340.624,563.463L362.569,574.098C374.736,579.993 384.209,590.29 389.074,602.905L397.847,625.659C402.71,638.274 412.184,648.571 424.351,654.467L446.297,665.102C458.464,670.997 467.938,681.294 472.801,693.909L476.088,702.433C483.966,722.866 478.553,746.04 462.436,760.868L424.862,795.438C403.186,815.381 369.446,813.977 349.502,792.3L3.083,415.776C-16.859,394.1 -15.454,360.36 6.222,340.417L43.796,305.847C59.913,291.019 83.456,287.551 103.165,297.101Z"/>
            </clipPath>
            <g clip-path="url(#_clip57)">
                <rect x="275.584" y="291.762" width="204.077" height="510.333" style="fill:url(#_Linear58);fill-rule:nonzero;"/>
            </g>
            <clipPath id="_clip59">
                <path d="M151.066,419.901L159.814,422.53C172.762,426.42 183.75,435.084 190.553,446.768L202.826,467.841C209.629,479.525 220.617,488.188 233.565,492.079L256.919,499.098C269.868,502.988 280.855,511.652 287.659,523.336L299.931,544.409C306.735,556.093 317.722,564.756 330.67,568.647L354.025,575.665C366.974,579.557 377.961,588.22 384.765,599.903L397.037,620.977C403.84,632.66 414.828,641.324 427.776,645.215L451.131,652.233C464.079,656.124 475.066,664.787 481.87,676.471L494.142,697.545C500.946,709.229 511.934,717.892 524.882,721.783L548.236,728.801C561.185,732.691 572.172,741.355 578.976,753.039L583.573,760.933C594.594,779.858 592.925,803.597 579.365,820.794L547.751,860.888C529.514,884.018 495.979,887.982 472.849,869.745L71.081,552.951C47.951,534.713 43.985,501.178 62.223,478.048L93.836,437.955C107.397,420.758 130.091,413.598 151.066,419.901Z"/>
            </clipPath>
            <g clip-path="url(#_clip59)">
                <rect x="275.584" y="417.642" width="315.234" height="384.453" style="fill:url(#_Linear60);fill-rule:nonzero;"/>
            </g>
            <clipPath id="_clip61">
                <path d="M138.777,442.054L147.598,444.428C160.654,447.943 171.887,456.285 179.026,467.766L191.903,488.476C199.042,499.958 210.276,508.299 223.332,511.813L246.88,518.152C259.936,521.667 271.169,530.009 278.308,541.49L291.185,562.2C298.324,573.682 309.558,582.023 322.613,585.538L346.162,591.877C359.217,595.392 370.451,603.733 377.59,615.215L390.467,635.924C397.606,647.406 408.84,655.748 421.895,659.262L445.443,665.602C458.499,669.115 469.732,677.457 476.872,688.939L489.749,709.648C496.888,721.13 508.121,729.472 521.177,732.986L544.725,739.325C557.78,742.84 569.014,751.182 576.153,762.663L580.977,770.421C592.541,789.019 591.561,812.796 578.504,830.379L548.064,871.37C530.504,895.019 497.098,899.953 473.45,882.393L62.678,577.364C39.03,559.804 34.095,526.397 51.655,502.749L82.095,461.758C95.151,444.175 117.63,436.361 138.777,442.054Z"/>
            </clipPath>
            <g clip-path="url(#_clip61)">
                <rect x="275.584" y="440.218" width="313.435" height="361.877" style="fill:url(#_Linear62);fill-rule:nonzero;"/>
            </g>
            <clipPath id="_clip63">
                <path d="M163.729,429.454L172.139,433.019C184.587,438.296 194.566,448.105 200.057,460.459L209.962,482.744C215.453,495.099 225.432,504.907 237.88,510.185L260.332,519.704C272.779,524.981 282.758,534.789 288.25,547.145L298.154,569.429C303.646,581.783 313.625,591.592 326.072,596.869L348.524,606.389C360.972,611.666 370.951,621.474 376.442,633.829L386.347,656.113C391.838,668.468 401.817,678.276 414.265,683.554L436.717,693.073C449.165,698.351 459.143,708.158 464.635,720.514L474.54,742.798C480.031,755.152 490.009,764.961 502.457,770.238L524.909,779.758C537.356,785.035 547.336,794.843 552.827,807.198L556.537,815.545C565.433,835.558 561.188,858.975 545.837,874.593L510.047,911.006C489.399,932.013 455.632,932.304 434.625,911.656L69.734,553.005C48.728,532.357 48.437,498.59 69.084,477.583L104.875,441.17C120.227,425.551 143.566,420.905 163.729,429.454Z"/>
            </clipPath>
            <g clip-path="url(#_clip63)">
                <rect x="275.584" y="425.221" width="285.552" height="376.874" style="fill:url(#_Linear64);fill-rule:nonzero;"/>
            </g>
            <clipPath id="_clip65">
                <path d="M128.45,452.013L137.199,454.642C150.147,458.533 161.134,467.196 167.938,478.88L180.21,499.954C187.014,511.637 198.001,520.302 210.949,524.191L234.304,531.21C247.252,535.101 258.239,543.764 265.043,555.447L277.315,576.521C284.12,588.205 295.107,596.868 308.055,600.759L331.41,607.777C344.358,611.668 355.345,620.332 362.149,632.016L374.421,653.089C381.225,664.772 392.212,673.437 405.161,677.327L428.516,684.345C441.464,688.236 452.451,696.899 459.255,708.583L471.527,729.657C478.331,741.341 489.318,750.004 502.267,753.895L525.621,760.913C538.569,764.804 549.557,773.468 556.36,785.151L560.957,793.045C571.979,811.97 570.31,835.709 556.749,852.906L525.136,892.999C506.898,916.129 473.363,920.095 450.233,901.857L48.465,585.063C25.335,566.825 21.37,533.29 39.607,510.16L71.221,470.067C84.781,452.87 107.477,445.71 128.45,452.013Z"/>
            </clipPath>
            <g clip-path="url(#_clip65)">
                <rect x="275.584" y="449.754" width="292.619" height="352.341" style="fill:url(#_Linear66);fill-rule:nonzero;"/>
            </g>
            <clipPath id="_clip67">
                <path d="M83.591,518.992L92.628,520.328C106.004,522.305 118.129,529.286 126.552,539.861L141.745,558.938C150.168,569.514 162.293,576.495 175.668,578.472L199.793,582.036C213.168,584.012 225.293,590.994 233.717,601.57L248.909,620.646C257.332,631.222 269.458,638.204 282.833,640.18L306.958,643.744C320.333,645.721 332.458,652.703 340.881,663.278L356.074,682.354C364.497,692.931 376.622,699.912 389.997,701.889L414.122,705.453C427.497,707.429 439.622,714.411 448.045,724.987L463.238,744.063C471.661,754.639 483.786,761.621 497.162,763.597L521.286,767.161C534.661,769.138 546.786,776.119 555.21,786.695L560.9,793.841C574.544,810.972 576.329,834.702 565.4,853.682L539.922,897.928C525.224,923.453 492.615,932.23 467.089,917.532L23.704,662.218C-1.821,647.519 -10.598,614.911 4.1,589.385L29.578,545.139C40.506,526.16 61.926,515.791 83.591,518.992Z"/>
            </clipPath>
            <g clip-path="url(#_clip67)">
                <rect x="275.584" y="518.417" width="296.931" height="283.678" style="fill:url(#_Linear68);fill-rule:nonzero;"/>
            </g>
            <clipPath id="_clip69">
                <path d="M101.835,484.125L110.583,486.754C123.531,490.645 134.519,499.308 141.323,510.992L153.595,532.065C160.398,543.749 171.386,552.413 184.334,556.304L207.689,563.321C220.637,567.213 231.625,575.876 238.428,587.56L250.7,608.634C257.504,620.317 268.491,628.98 281.439,632.871L304.794,639.89C317.743,643.78 328.73,652.444 335.534,664.128L347.806,685.201C354.609,696.885 365.597,705.548 378.545,709.439L401.9,716.457C414.848,720.349 425.835,729.012 432.639,740.695L444.912,761.769C451.715,773.452 462.703,782.116 475.651,786.007L499.005,793.025C511.954,796.916 522.94,805.579 529.745,817.263L534.342,825.157C545.363,844.082 543.694,867.821 530.134,885.019L498.521,925.111C480.283,948.241 446.748,952.207 423.618,933.969L21.85,617.176C-1.279,598.938 -5.245,565.402 12.992,542.272L44.606,502.18C58.166,484.982 80.86,477.822 101.835,484.125Z"/>
            </clipPath>
            <g clip-path="url(#_clip69)">
                <rect x="275.584" y="481.866" width="266.003" height="320.229" style="fill:url(#_Linear70);fill-rule:nonzero;"/>
            </g>
            <clipPath id="_clip71">
                <path d="M136.834,467.617L144.928,471.852C156.908,478.119 166.06,488.703 170.534,501.461L178.603,524.475C183.076,537.232 192.229,547.816 204.208,554.084L225.816,565.389C237.796,571.656 246.948,582.24 251.421,594.999L259.491,618.012C263.964,630.771 273.116,641.354 285.096,647.621L306.704,658.927C318.684,665.194 327.836,675.777 332.31,688.536L340.378,711.549C344.852,724.308 354.004,734.892 365.984,741.159L387.592,752.464C399.572,758.731 408.724,769.314 413.198,782.073L421.267,805.087C425.74,817.846 434.892,828.429 446.872,834.696L468.48,846.001C480.46,852.269 489.612,862.853 494.085,875.611L497.108,884.231C504.354,904.898 498.23,927.895 481.665,942.22L443.045,975.616C420.765,994.884 387.084,992.44 367.817,970.161L33.149,583.156C13.882,560.876 16.324,527.196 38.604,507.929L77.224,474.532C93.79,460.207 117.429,457.464 136.834,467.617Z"/>
            </clipPath>
            <g clip-path="url(#_clip71)">
                <rect x="275.584" y="461.539" width="224.53" height="340.556" style="fill:url(#_Linear72);fill-rule:nonzero;"/>
            </g>
            <clipPath id="_clip73">
                <path d="M79.219,516.237L87.967,518.867C100.916,522.758 111.903,531.421 118.707,543.104L130.979,564.178C137.783,575.861 148.77,584.524 161.719,588.416L185.073,595.434C198.021,599.325 209.009,607.988 215.813,619.672L228.085,640.745C234.889,652.429 245.876,661.093 258.824,664.983L282.179,672.002C295.127,675.893 306.115,684.556 312.918,696.239L325.19,717.313C331.994,728.997 342.981,737.66 355.93,741.552L379.285,748.569C392.233,752.46 403.22,761.124 410.024,772.808L422.296,793.881C429.1,805.564 440.087,814.229 453.035,818.119L476.39,825.138C489.338,829.028 500.326,837.691 507.13,849.375L511.727,857.27C522.747,876.194 521.078,899.934 507.519,917.131L475.905,957.224C457.667,980.354 424.132,984.319 401.002,966.081L-0.765,649.287C-23.895,631.05 -27.86,597.515 -9.623,574.385L21.99,534.292C35.55,517.095 58.245,509.935 79.219,516.237Z"/>
            </clipPath>
            <g clip-path="url(#_clip73)">
                <rect x="275.584" y="513.978" width="243.388" height="288.117" style="fill:url(#_Linear74);fill-rule:nonzero;"/>
            </g>
            <clipPath id="_clip75">
                <path d="M118.321,505.258L126.409,509.504C138.379,515.79 147.516,526.388 151.97,539.152L160.004,562.178C164.458,574.943 173.595,585.541 185.565,591.826L207.156,603.164C219.126,609.449 228.262,620.047 232.717,632.813L240.751,655.837C245.205,668.603 254.341,679.2 266.312,685.485L287.902,696.823C299.873,703.108 309.009,713.706 313.463,726.472L321.498,749.496C325.952,762.262 335.088,772.859 347.059,779.146L368.649,790.482C380.62,796.768 389.756,807.365 394.21,820.131L402.245,843.156C406.699,855.922 415.835,866.519 427.805,872.805L449.396,884.142C461.367,890.428 470.503,901.024 474.957,913.79L477.967,922.415C485.182,943.093 479.022,966.079 462.436,980.38L423.766,1013.72C401.457,1032.95 367.78,1030.46 348.547,1008.15L14.462,620.641C-4.771,598.332 -2.277,564.655 20.031,545.422L58.701,512.083C75.288,497.783 98.931,495.076 118.321,505.258Z"/>
            </clipPath>
            <g clip-path="url(#_clip75)">
                <rect x="275.584" y="499.143" width="205.363" height="302.952" style="fill:url(#_Linear76);fill-rule:nonzero;"/>
            </g>
            <clipPath id="_clip77">
                <path d="M52.604,548.35L61.352,550.979C74.3,554.869 85.288,563.532 92.091,575.216L104.364,596.29C111.167,607.974 122.155,616.637 135.103,620.528L158.458,627.546C171.406,631.437 182.394,640.101 189.197,651.784L201.469,672.857C208.273,684.541 219.26,693.205 232.209,697.096L255.563,704.113C268.512,708.005 279.499,716.668 286.303,728.352L298.575,749.426C305.379,761.109 316.366,769.772 329.314,773.663L352.669,780.682C365.617,784.572 376.604,793.236 383.409,804.92L395.681,825.993C402.484,837.677 413.472,846.34 426.42,850.231L449.775,857.249C462.723,861.141 473.71,869.804 480.514,881.487L485.111,889.381C496.132,908.307 494.463,932.046 480.903,949.243L449.29,989.336C431.052,1012.47 397.517,1016.43 374.387,998.193L-27.38,681.399C-50.51,663.162 -54.476,629.627 -36.238,606.497L-4.625,566.403C8.935,549.206 31.63,542.047 52.604,548.35Z"/>
            </clipPath>
            <g clip-path="url(#_clip77)">
                <rect x="275.584" y="546.091" width="216.772" height="256.004" style="fill:url(#_Linear78);fill-rule:nonzero;"/>
            </g>
            <clipPath id="_clip79">
                <path d="M3.158,611.257L11.906,613.886C24.855,617.776 35.842,626.439 42.646,638.123L54.918,659.197C61.722,670.881 72.709,679.544 85.657,683.435L109.012,690.453C121.96,694.344 132.948,703.008 139.751,714.691L152.024,735.765C158.828,747.448 169.815,756.111 182.763,760.003L206.118,767.021C219.066,770.912 230.054,779.575 236.857,791.259L249.129,812.333C255.933,824.017 266.92,832.68 279.869,836.57L303.224,843.589C316.172,847.479 327.159,856.144 333.963,867.827L346.235,888.9C353.039,900.584 364.026,909.247 376.974,913.139L400.329,920.156C413.277,924.048 424.265,932.711 431.068,944.395L435.666,952.288C446.687,971.214 445.018,994.952 431.458,1012.15L399.844,1052.24C381.606,1075.37 348.071,1079.34 324.941,1061.1L-76.826,744.307C-99.956,726.068 -103.922,692.534 -85.684,669.404L-54.07,629.311C-40.51,612.113 -17.815,604.954 3.158,611.257Z"/>
            </clipPath>
            <g clip-path="url(#_clip79)">
                <rect x="275.584" y="608.998" width="167.327" height="193.097" style="fill:url(#_Linear80);fill-rule:nonzero;"/>
            </g>
            <clipPath id="_clip81">
                <path d="M-21.671,642.052L-12.923,644.681C0.024,648.571 11.012,657.234 17.815,668.918L30.087,689.992C36.891,701.676 47.878,710.339 60.827,714.229L84.182,721.248C97.13,725.139 108.118,733.803 114.921,745.486L127.193,766.56C133.998,778.243 144.985,786.907 157.933,790.798L181.288,797.815C194.236,801.707 205.223,810.37 212.027,822.054L224.299,843.128C231.103,854.812 242.09,863.475 255.039,867.365L278.393,874.384C291.342,878.274 302.329,886.938 309.133,898.622L321.405,919.695C328.208,931.379 339.196,940.042 352.144,943.934L375.499,950.951C388.447,954.843 399.435,963.506 406.238,975.189L410.835,983.083C421.856,1002.01 420.188,1025.75 406.627,1042.95L375.014,1083.04C356.776,1106.17 323.241,1110.13 300.111,1091.9L-101.656,775.102C-124.786,756.864 -128.752,723.329 -110.514,700.199L-78.9,660.105C-65.34,642.908 -42.645,635.749 -21.671,642.052Z"/>
            </clipPath>
            <g clip-path="url(#_clip81)">
                <rect x="275.584" y="639.793" width="142.497" height="162.302" style="fill:url(#_Linear82);fill-rule:nonzero;"/>
            </g>
            <clipPath id="_clip83">
                <path d="M-46.502,672.847L-37.753,675.476C-24.805,679.366 -13.817,688.029 -7.014,699.713L5.257,720.787C12.061,732.471 23.048,741.134 35.997,745.025L59.352,752.043C72.3,755.934 83.287,764.598 90.091,776.281L102.363,797.354C109.167,809.038 120.154,817.702 133.103,821.593L156.458,828.611C169.406,832.502 180.393,841.165 187.197,852.849L199.469,873.923C206.273,885.606 217.26,894.27 230.208,898.16L253.563,905.179C266.511,909.069 277.499,917.733 284.303,929.417L296.575,950.49C303.378,962.174 314.366,970.837 327.314,974.729L350.669,981.746C363.617,985.638 374.604,994.301 381.408,1005.98L386.005,1013.88C397.026,1032.8 395.357,1056.54 381.797,1073.74L350.184,1113.83C331.946,1136.96 298.411,1140.93 275.281,1122.69L-126.487,805.896C-149.616,787.659 -153.582,754.124 -135.344,730.994L-103.731,690.9C-90.17,673.703 -67.475,666.544 -46.502,672.847Z"/>
            </clipPath>
            <g clip-path="url(#_clip83)">
                <rect x="275.584" y="670.588" width="117.666" height="131.507" style="fill:url(#_Linear84);fill-rule:nonzero;"/>
            </g>
            <clipPath id="_clip85">
                <path d="M-71.332,703.642L-62.584,706.271C-49.635,710.161 -38.648,718.824 -31.844,730.508L-19.572,751.582C-12.768,763.266 -1.781,771.929 11.167,775.82L34.521,782.838C47.47,786.729 58.457,795.393 65.261,807.076L77.533,828.149C84.336,839.833 95.324,848.497 108.272,852.388L131.627,859.406C144.576,863.297 155.563,871.96 162.367,883.644L174.639,904.718C181.442,916.401 192.43,925.064 205.378,928.955L228.733,935.974C241.681,939.864 252.668,948.528 259.471,960.212L271.744,981.285C278.548,992.969 289.536,1001.63 302.484,1005.52L325.838,1012.54C338.787,1016.43 349.774,1025.1 356.578,1036.78L361.175,1044.67C372.196,1063.6 370.527,1087.34 356.967,1104.54L325.354,1144.63C307.116,1167.76 273.581,1171.72 250.451,1153.49L-151.317,836.691C-174.447,818.454 -178.412,784.919 -160.174,761.789L-128.561,721.695C-115.001,704.498 -92.306,697.339 -71.332,703.642Z"/>
            </clipPath>
            <g clip-path="url(#_clip85)">
                <rect x="275.584" y="701.383" width="92.836" height="100.712" style="fill:url(#_Linear86);fill-rule:nonzero;"/>
            </g>
            <clipPath id="_clip87">
                <path d="M-96.162,734.437L-87.414,737.065C-74.465,740.956 -63.478,749.62 -56.674,761.304L-44.402,782.377C-37.598,794.061 -26.611,802.724 -13.663,806.615L9.691,813.633C22.639,817.524 33.627,826.188 40.431,837.871L52.703,858.944C59.506,870.628 70.494,879.292 83.442,883.183L106.797,890.201C119.746,894.092 130.733,902.755 137.537,914.438L149.809,935.513C156.612,947.196 167.6,955.859 180.548,959.751L203.903,966.769C216.851,970.659 227.838,979.323 234.642,991.007L246.914,1012.08C253.718,1023.76 264.705,1032.43 277.654,1036.32L301.008,1043.34C313.957,1047.23 324.944,1055.89 331.748,1067.57L336.345,1075.47C347.366,1094.39 345.697,1118.13 332.137,1135.33L300.523,1175.42C282.286,1198.55 248.75,1202.52 225.621,1184.28L-176.147,867.486C-199.277,849.249 -203.243,815.714 -185.005,792.584L-153.391,752.491C-139.831,735.293 -117.136,728.134 -96.162,734.437Z"/>
            </clipPath>
            <g clip-path="url(#_clip87)">
                <rect x="275.584" y="732.178" width="68.006" height="69.917" style="fill:url(#_Linear88);fill-rule:nonzero;"/>
            </g>
            <clipPath id="_clip89">
                <path d="M-120.993,765.231L-112.244,767.86C-99.295,771.751 -88.308,780.415 -81.504,792.099L-69.232,813.172C-62.429,824.855 -51.441,833.519 -38.493,837.41L-15.138,844.428C-2.19,848.319 8.796,856.982 15.6,868.666L27.872,889.739C34.676,901.423 45.664,910.087 58.612,913.978L81.966,920.996C94.915,924.887 105.902,933.55 112.707,945.233L124.979,966.308C131.782,977.991 142.77,986.654 155.718,990.546L179.073,997.563C192.021,1001.45 203.008,1010.12 209.812,1021.8L222.084,1042.88C228.888,1054.56 239.875,1063.22 252.823,1067.11L276.178,1074.13C289.126,1078.02 300.114,1086.69 306.917,1098.37L311.515,1106.26C322.535,1125.19 320.867,1148.93 307.307,1166.13L275.693,1206.22C257.454,1229.35 223.92,1233.31 200.791,1215.08L-200.977,898.281C-224.107,880.044 -228.073,846.509 -209.835,823.379L-178.221,783.286C-164.661,766.089 -141.966,758.929 -120.993,765.231Z"/>
            </clipPath>
            <g clip-path="url(#_clip89)">
                <rect x="275.584" y="762.972" width="43.176" height="39.123" style="fill:url(#_Linear90);fill-rule:nonzero;"/>
            </g>
            <clipPath id="_clip91">
                <path d="M-145.823,796.026L-137.074,798.655C-124.126,802.546 -113.139,811.21 -106.335,822.894L-94.063,843.967C-87.259,855.65 -76.272,864.313 -63.323,868.205L-39.968,875.223C-27.02,879.114 -16.033,887.777 -9.229,899.461L3.042,920.534C9.846,932.218 20.833,940.882 33.782,944.772L57.136,951.791C70.085,955.682 81.072,964.346 87.876,976.029L100.148,997.103C106.952,1008.79 117.939,1017.45 130.888,1021.34L154.242,1028.36C167.191,1032.25 178.178,1040.91 184.982,1052.6L197.254,1073.67C204.058,1085.35 215.045,1094.02 227.993,1097.91L251.348,1104.93C264.296,1108.82 275.284,1117.48 282.087,1129.16L286.684,1137.06C297.705,1155.98 296.037,1179.72 282.477,1196.92L250.863,1237.01C232.625,1260.14 199.09,1264.11 175.96,1245.87L-225.808,929.076C-248.937,910.839 -252.903,877.304 -234.665,854.174L-203.052,814.081C-189.492,796.884 -166.796,789.724 -145.823,796.026Z"/>
            </clipPath>
            <g clip-path="url(#_clip91)">
                <rect x="275.584" y="793.767" width="18.346" height="8.328" style="fill:url(#_Linear92);fill-rule:nonzero;"/>
            </g>
        </g>
    </g>
    <defs>
        <linearGradient id="_Linear1" x1="0" y1="0" x2="1" y2="0" gradientUnits="userSpaceOnUse" gradientTransform="matrix(509.486,0,0,509.486,275.584,500)"><stop offset="0" style="stop-color:rgb(63,59,151);stop-opacity:1"/><stop offset="0.5" style="stop-color:rgb(90,53,148);stop-opacity:1"/><stop offset="0.7" style="stop-color:rgb(132,44,145);stop-opacity:1"/><stop offset="0.9" style="stop-color:rgb(205,36,140);stop-opacity:1"/><stop offset="1" style="stop-color:rgb(238,50,128);stop-opacity:1"/></linearGradient>
        <linearGradient id="_Linear4" x1="0" y1="0" x2="1" y2="0" gradientUnits="userSpaceOnUse" gradientTransform="matrix(98.91,-127.132,127.132,98.91,636.468,242.886)"><stop offset="0" style="stop-color:rgb(197,29,100);stop-opacity:1"/><stop offset="0.6" style="stop-color:rgb(213,38,99);stop-opacity:1"/><stop offset="0.9" style="stop-color:rgb(238,98,100);stop-opacity:1"/><stop offset="1" style="stop-color:rgb(244,124,102);stop-opacity:1"/></linearGradient>
        <linearGradient id="_Linear6" x1="0" y1="0" x2="1" y2="0" gradientUnits="userSpaceOnUse" gradientTransform="matrix(99.0473,-127.024,127.024,99.0473,612.641,272.795)"><stop offset="0" style="stop-color:rgb(64,77,161);stop-opacity:1"/><stop offset="0.9" style="stop-color:rgb(83,117,185);stop-opacity:1"/><stop offset="1" style="stop-color:rgb(90,127,192);stop-opacity:1"/></linearGradient>
        <linearGradient id="_Linear8" x1="0" y1="0" x2="1" y2="0" gradientUnits="userSpaceOnUse" gradientTransform="matrix(99.1847,-126.916,126.916,99.1847,588.813,302.704)"><stop offset="0" style="stop-color:rgb(85,176,227);stop-opacity:1"/><stop offset="0.7" style="stop-color:rgb(67,80,162);stop-opacity:1"/><stop offset="1" style="stop-color:rgb(63,59,151);stop-opacity:1"/></linearGradient>
        <linearGradient id="_Linear10" x1="0" y1="0" x2="1" y2="0" gradientUnits="userSpaceOnUse" gradientTransform="matrix(91.6601,-342.08,342.08,91.6601,636.056,457.281)"><stop offset="0" style="stop-color:rgb(85,176,227);stop-opacity:1"/><stop offset="0.6" style="stop-color:rgb(68,85,165);stop-opacity:1"/><stop offset="1" style="stop-color:rgb(63,59,151);stop-opacity:1"/></linearGradient>
        <linearGradient id="_Linear12" x1="0" y1="0" x2="1" y2="0" gradientUnits="userSpaceOnUse" gradientTransform="matrix(102.267,-314.744,314.744,102.267,538.743,457.756)"><stop offset="0" style="stop-color:rgb(64,91,169);stop-opacity:1"/><stop offset="0.5" style="stop-color:rgb(69,101,175);stop-opacity:1"/><stop offset="0.7" style="stop-color:rgb(74,120,188);stop-opacity:1"/><stop offset="1" style="stop-color:rgb(89,185,233);stop-opacity:1"/></linearGradient>
        <linearGradient id="_Linear14" x1="0" y1="0" x2="1" y2="0" gradientUnits="userSpaceOnUse" gradientTransform="matrix(399.073,475.596,-475.596,399.073,292.214,-0.6495)"><stop offset="0" style="stop-color:rgb(63,59,151);stop-opacity:1"/><stop offset="0.5" style="stop-color:rgb(94,53,148);stop-opacity:1"/><stop offset="0.7" style="stop-color:rgb(136,44,145);stop-opacity:1"/><stop offset="0.9" style="stop-color:rgb(208,35,140);stop-opacity:1"/><stop offset="1" style="stop-color:rgb(238,50,128);stop-opacity:1"/></linearGradient>
        <linearGradient id="_Linear16" x1="0" y1="0" x2="1" y2="0" gradientUnits="userSpaceOnUse" gradientTransform="matrix(99.701,-255.746,255.746,99.701,522.19,465.423)"><stop offset="0" style="stop-color:rgb(218,31,53);stop-opacity:1"/><stop offset="0.3" style="stop-color:rgb(218,29,66);stop-opacity:1"/><stop offset="0.6" style="stop-color:rgb(220,31,103);stop-opacity:1"/><stop offset="0.8" style="stop-color:rgb(222,51,143);stop-opacity:1"/><stop offset="1" style="stop-color:rgb(201,87,160);stop-opacity:1"/></linearGradient>
        <linearGradient id="_Linear18" x1="0" y1="0" x2="1" y2="0" gradientUnits="userSpaceOnUse" gradientTransform="matrix(339.034,-123.398,123.398,339.034,376.565,392.157)"><stop offset="0" style="stop-color:rgb(64,91,169);stop-opacity:1"/><stop offset="0.4" style="stop-color:rgb(69,100,175);stop-opacity:1"/><stop offset="1" style="stop-color:rgb(89,185,233);stop-opacity:1"/></linearGradient>
        <linearGradient id="_Linear20" x1="0" y1="0" x2="1" y2="0" gradientUnits="userSpaceOnUse" gradientTransform="matrix(116.384,-201.582,201.582,116.384,484.662,460.297)"><stop offset="0" style="stop-color:rgb(218,31,53);stop-opacity:1"/><stop offset="0.5" style="stop-color:rgb(224,28,69);stop-opacity:1"/><stop offset="1" style="stop-color:rgb(240,99,138);stop-opacity:1"/></linearGradient>
        <linearGradient id="_Linear22" x1="0" y1="0" x2="1" y2="0" gradientUnits="userSpaceOnUse" gradientTransform="matrix(354.497,-129.026,129.026,354.497,260.614,364.258)"><stop offset="0" style="stop-color:rgb(64,91,169);stop-opacity:1"/><stop offset="1" style="stop-color:rgb(89,185,233);stop-opacity:1"/></linearGradient>
        <linearGradient id="_Linear24" x1="0" y1="0" x2="1" y2="0" gradientUnits="userSpaceOnUse" gradientTransform="matrix(68.3943,-387.883,387.883,68.3943,489.229,586.469)"><stop offset="0" style="stop-color:rgb(218,31,53);stop-opacity:1"/><stop offset="0.6" style="stop-color:rgb(233,54,80);stop-opacity:1"/><stop offset="1" style="stop-color:rgb(242,112,121);stop-opacity:1"/></linearGradient>
        <linearGradient id="_Linear26" x1="0" y1="0" x2="1" y2="0" gradientUnits="userSpaceOnUse" gradientTransform="matrix(384.012,-102.896,102.896,384.012,225.709,377.311)"><stop offset="0" style="stop-color:rgb(63,59,151);stop-opacity:1"/><stop offset="0.4" style="stop-color:rgb(99,50,147);stop-opacity:1"/><stop offset="0.7" style="stop-color:rgb(162,38,143);stop-opacity:1"/><stop offset="0.9" style="stop-color:rgb(220,34,136);stop-opacity:1"/><stop offset="1" style="stop-color:rgb(238,50,128);stop-opacity:1"/></linearGradient>
        <linearGradient id="_Linear28" x1="0" y1="0" x2="1" y2="0" gradientUnits="userSpaceOnUse" gradientTransform="matrix(92.037,-343.487,343.487,92.037,447.076,596.385)"><stop offset="0" style="stop-color:rgb(218,31,53);stop-opacity:1"/><stop offset="0.8" style="stop-color:rgb(240,75,78);stop-opacity:1"/><stop offset="1" style="stop-color:rgb(242,104,91);stop-opacity:1"/></linearGradient>
        <linearGradient id="_Linear30" x1="0" y1="0" x2="1" y2="0" gradientUnits="userSpaceOnUse" gradientTransform="matrix(533.024,46.6336,-46.6336,533.024,213.513,408.008)"><stop offset="0" style="stop-color:rgb(63,59,151);stop-opacity:1"/><stop offset="0.5" style="stop-color:rgb(160,39,144);stop-opacity:1"/><stop offset="0.8" style="stop-color:rgb(221,36,136);stop-opacity:1"/><stop offset="0.9" style="stop-color:rgb(237,41,131);stop-opacity:1"/><stop offset="1" style="stop-color:rgb(238,50,128);stop-opacity:1"/></linearGradient>
        <linearGradient id="_Linear32" x1="0" y1="0" x2="1" y2="0" gradientUnits="userSpaceOnUse" gradientTransform="matrix(102.569,-315.675,315.675,102.569,417.226,614.494)"><stop offset="0" style="stop-color:rgb(218,31,53);stop-opacity:1"/><stop offset="1" style="stop-color:rgb(242,104,91);stop-opacity:1"/></linearGradient>
        <linearGradient id="_Linear34" x1="0" y1="0" x2="1" y2="0" gradientUnits="userSpaceOnUse" gradientTransform="matrix(547.972,255.523,-255.523,547.972,167.873,328.89)"><stop offset="0" style="stop-color:rgb(63,59,151);stop-opacity:1"/><stop offset="0.6" style="stop-color:rgb(205,34,140);stop-opacity:1"/><stop offset="0.8" style="stop-color:rgb(235,41,133);stop-opacity:1"/><stop offset="1" style="stop-color:rgb(238,50,128);stop-opacity:1"/></linearGradient>
        <linearGradient id="_Linear36" x1="0" y1="0" x2="1" y2="0" gradientUnits="userSpaceOnUse" gradientTransform="matrix(474.66,398.287,-398.287,474.66,207.535,288.533)"><stop offset="0" style="stop-color:rgb(218,31,53);stop-opacity:1"/><stop offset="1" style="stop-color:rgb(242,104,91);stop-opacity:1"/></linearGradient>
        <linearGradient id="_Linear38" x1="0" y1="0" x2="1" y2="0" gradientUnits="userSpaceOnUse" gradientTransform="matrix(85.9453,-184.31,184.31,85.9453,494.785,665.383)"><stop offset="0" style="stop-color:rgb(63,59,151);stop-opacity:1"/><stop offset="0.4" style="stop-color:rgb(102,50,147);stop-opacity:1"/><stop offset="0.8" style="stop-color:rgb(194,34,143);stop-opacity:1"/><stop offset="0.9" style="stop-color:rgb(221,34,136);stop-opacity:1"/><stop offset="1" style="stop-color:rgb(238,50,128);stop-opacity:1"/></linearGradient>
        <linearGradient id="_Linear40" x1="0" y1="0" x2="1" y2="0" gradientUnits="userSpaceOnUse" gradientTransform="matrix(108.73,-155.283,155.283,108.73,365.711,597.441)"><stop offset="0" style="stop-color:rgb(63,59,151);stop-opacity:1"/><stop offset="1" style="stop-color:rgb(85,176,227);stop-opacity:1"/></linearGradient>
        <linearGradient id="_Linear42" x1="0" y1="0" x2="1" y2="0" gradientUnits="userSpaceOnUse" gradientTransform="matrix(357.817,-130.235,130.235,357.817,220.344,586.097)"><stop offset="0" style="stop-color:rgb(218,31,53);stop-opacity:1"/><stop offset="1" style="stop-color:rgb(240,99,138);stop-opacity:1"/></linearGradient>
        <linearGradient id="_Linear44" x1="0" y1="0" x2="1" y2="0" gradientUnits="userSpaceOnUse" gradientTransform="matrix(72.5877,-199.433,199.433,72.5877,368.562,651.754)"><stop offset="0" style="stop-color:rgb(63,59,151);stop-opacity:1"/><stop offset="0.4" style="stop-color:rgb(98,51,148);stop-opacity:1"/><stop offset="0.7" style="stop-color:rgb(160,38,144);stop-opacity:1"/><stop offset="0.9" style="stop-color:rgb(220,34,137);stop-opacity:1"/><stop offset="1" style="stop-color:rgb(238,50,128);stop-opacity:1"/></linearGradient>
        <linearGradient id="_Linear46" x1="0" y1="0" x2="1" y2="0" gradientUnits="userSpaceOnUse" gradientTransform="matrix(116.224,-249.243,249.243,116.224,336.8,677.114)"><stop offset="0" style="stop-color:rgb(63,59,151);stop-opacity:1"/><stop offset="1" style="stop-color:rgb(85,176,227);stop-opacity:1"/></linearGradient>
        <linearGradient id="_Linear48" x1="0" y1="0" x2="1" y2="0" gradientUnits="userSpaceOnUse" gradientTransform="matrix(415.708,-88.3615,88.3615,415.708,160.118,597.269)"><stop offset="0" style="stop-color:rgb(218,31,53);stop-opacity:1"/><stop offset="0.3" style="stop-color:rgb(218,29,75);stop-opacity:1"/><stop offset="0.8" style="stop-color:rgb(222,58,149);stop-opacity:1"/><stop offset="1" style="stop-color:rgb(201,87,160);stop-opacity:1"/></linearGradient>
        <linearGradient id="_Linear50" x1="0" y1="0" x2="1" y2="0" gradientUnits="userSpaceOnUse" gradientTransform="matrix(67.8169,-253.096,253.096,67.8169,342.04,719.995)"><stop offset="0" style="stop-color:rgb(63,59,151);stop-opacity:1"/><stop offset="0.4" style="stop-color:rgb(82,56,149);stop-opacity:1"/><stop offset="0.6" style="stop-color:rgb(115,47,146);stop-opacity:1"/><stop offset="0.8" style="stop-color:rgb(172,37,143);stop-opacity:1"/><stop offset="0.9" style="stop-color:rgb(210,35,139);stop-opacity:1"/><stop offset="1" style="stop-color:rgb(238,50,128);stop-opacity:1"/></linearGradient>
        <linearGradient id="_Linear52" x1="0" y1="0" x2="1" y2="0" gradientUnits="userSpaceOnUse" gradientTransform="matrix(116.224,-249.243,249.243,116.224,312.184,709.226)"><stop offset="0" style="stop-color:rgb(63,59,151);stop-opacity:1"/><stop offset="0.7" style="stop-color:rgb(82,158,214);stop-opacity:1"/><stop offset="1" style="stop-color:rgb(85,176,227);stop-opacity:1"/></linearGradient>
        <linearGradient id="_Linear54" x1="0" y1="0" x2="1" y2="0" gradientUnits="userSpaceOnUse" gradientTransform="matrix(307.137,531.977,-531.977,307.137,194.309,340.534)"><stop offset="0" style="stop-color:rgb(63,59,151);stop-opacity:1"/><stop offset="0.5" style="stop-color:rgb(198,32,142);stop-opacity:1"/><stop offset="0.7" style="stop-color:rgb(231,37,134);stop-opacity:1"/><stop offset="1" style="stop-color:rgb(238,50,128);stop-opacity:1"/></linearGradient>
        <linearGradient id="_Linear56" x1="0" y1="0" x2="1" y2="0" gradientUnits="userSpaceOnUse" gradientTransform="matrix(116.224,-249.243,249.243,116.224,287.569,741.338)"><stop offset="0" style="stop-color:rgb(63,59,151);stop-opacity:1"/><stop offset="1" style="stop-color:rgb(85,176,227);stop-opacity:1"/></linearGradient>
        <linearGradient id="_Linear58" x1="0" y1="0" x2="1" y2="0" gradientUnits="userSpaceOnUse" gradientTransform="matrix(308.56,534.442,-534.442,308.56,80.6593,283.075)"><stop offset="0" style="stop-color:rgb(63,59,151);stop-opacity:1"/><stop offset="0.4" style="stop-color:rgb(89,54,149);stop-opacity:1"/><stop offset="0.6" style="stop-color:rgb(122,44,145);stop-opacity:1"/><stop offset="0.9" style="stop-color:rgb(214,33,138);stop-opacity:1"/><stop offset="1" style="stop-color:rgb(238,50,128);stop-opacity:1"/></linearGradient>
        <linearGradient id="_Linear60" x1="0" y1="0" x2="1" y2="0" gradientUnits="userSpaceOnUse" gradientTransform="matrix(393.998,-143.404,143.404,393.998,123.794,721.127)"><stop offset="0" style="stop-color:rgb(63,59,151);stop-opacity:1"/><stop offset="0.6" style="stop-color:rgb(71,115,184);stop-opacity:1"/><stop offset="1" style="stop-color:rgb(85,176,227);stop-opacity:1"/></linearGradient>
        <linearGradient id="_Linear62" x1="0" y1="0" x2="1" y2="0" gradientUnits="userSpaceOnUse" gradientTransform="matrix(110.354,-236.654,236.654,110.354,260.23,784.18)"><stop offset="0" style="stop-color:rgb(218,31,53);stop-opacity:1"/><stop offset="0.3" style="stop-color:rgb(218,29,68);stop-opacity:1"/><stop offset="0.6" style="stop-color:rgb(221,32,107);stop-opacity:1"/><stop offset="0.8" style="stop-color:rgb(223,52,147);stop-opacity:1"/><stop offset="1" style="stop-color:rgb(201,87,160);stop-opacity:1"/></linearGradient>
        <linearGradient id="_Linear64" x1="0" y1="0" x2="1" y2="0" gradientUnits="userSpaceOnUse" gradientTransform="matrix(350.491,-127.568,127.568,350.491,132.212,739.879)"><stop offset="0" style="stop-color:rgb(63,59,151);stop-opacity:1"/><stop offset="0.6" style="stop-color:rgb(68,106,179);stop-opacity:1"/><stop offset="1" style="stop-color:rgb(85,176,227);stop-opacity:1"/></linearGradient>
        <linearGradient id="_Linear66" x1="0" y1="0" x2="1" y2="0" gradientUnits="userSpaceOnUse" gradientTransform="matrix(412.13,-133.909,133.909,412.13,92.113,748.491)"><stop offset="0" style="stop-color:rgb(63,59,151);stop-opacity:1"/><stop offset="0.5" style="stop-color:rgb(90,53,148);stop-opacity:1"/><stop offset="0.7" style="stop-color:rgb(132,44,145);stop-opacity:1"/><stop offset="0.9" style="stop-color:rgb(205,36,140);stop-opacity:1"/><stop offset="1" style="stop-color:rgb(238,50,128);stop-opacity:1"/></linearGradient>
        <linearGradient id="_Linear68" x1="0" y1="0" x2="1" y2="0" gradientUnits="userSpaceOnUse" gradientTransform="matrix(83.5808,-157.193,157.193,83.5808,243.679,798.777)"><stop offset="0" style="stop-color:rgb(63,59,151);stop-opacity:1"/><stop offset="0.5" style="stop-color:rgb(81,56,149);stop-opacity:1"/><stop offset="0.7" style="stop-color:rgb(117,46,145);stop-opacity:1"/><stop offset="0.8" style="stop-color:rgb(148,40,144);stop-opacity:1"/><stop offset="0.9" style="stop-color:rgb(196,33,142);stop-opacity:1"/><stop offset="1" style="stop-color:rgb(238,50,128);stop-opacity:1"/></linearGradient>
        <linearGradient id="_Linear70" x1="0" y1="0" x2="1" y2="0" gradientUnits="userSpaceOnUse" gradientTransform="matrix(108.73,-155.283,155.283,108.73,218.019,790.114)"><stop offset="0" style="stop-color:rgb(63,59,151);stop-opacity:1"/><stop offset="0.5" style="stop-color:rgb(67,75,159);stop-opacity:1"/><stop offset="0.8" style="stop-color:rgb(71,113,183);stop-opacity:1"/><stop offset="1" style="stop-color:rgb(85,176,227);stop-opacity:1"/></linearGradient>
        <linearGradient id="_Linear72" x1="0" y1="0" x2="1" y2="0" gradientUnits="userSpaceOnUse" gradientTransform="matrix(309.391,535.881,-535.881,309.391,106.17,456.716)"><stop offset="0" style="stop-color:rgb(63,59,151);stop-opacity:1"/><stop offset="0.6" style="stop-color:rgb(118,46,145);stop-opacity:1"/><stop offset="0.8" style="stop-color:rgb(175,36,143);stop-opacity:1"/><stop offset="0.9" style="stop-color:rgb(212,34,139);stop-opacity:1"/><stop offset="1" style="stop-color:rgb(238,50,128);stop-opacity:1"/></linearGradient>
        <linearGradient id="_Linear74" x1="0" y1="0" x2="1" y2="0" gradientUnits="userSpaceOnUse" gradientTransform="matrix(116.224,-249.243,249.243,116.224,191.107,869.787)"><stop offset="0" style="stop-color:rgb(63,59,151);stop-opacity:1"/><stop offset="0.6" style="stop-color:rgb(68,80,162);stop-opacity:1"/><stop offset="0.8" style="stop-color:rgb(70,109,181);stop-opacity:1"/><stop offset="1" style="stop-color:rgb(85,176,227);stop-opacity:1"/></linearGradient>
        <linearGradient id="_Linear76" x1="0" y1="0" x2="1" y2="0" gradientUnits="userSpaceOnUse" gradientTransform="matrix(309.425,535.941,-535.941,309.425,87.2572,494.509)"><stop offset="0" style="stop-color:rgb(63,59,151);stop-opacity:1"/><stop offset="0.6" style="stop-color:rgb(67,75,159);stop-opacity:1"/><stop offset="0.8" style="stop-color:rgb(69,102,176);stop-opacity:1"/><stop offset="0.9" style="stop-color:rgb(76,131,196);stop-opacity:1"/><stop offset="1" style="stop-color:rgb(85,176,227);stop-opacity:1"/></linearGradient>
        <linearGradient id="_Linear78" x1="0" y1="0" x2="1" y2="0" gradientUnits="userSpaceOnUse" gradientTransform="matrix(117.273,-220.558,220.558,117.273,164.11,887.363)"><stop offset="0" style="stop-color:rgb(63,59,151);stop-opacity:1"/><stop offset="0.6" style="stop-color:rgb(66,70,157);stop-opacity:1"/><stop offset="0.8" style="stop-color:rgb(68,94,171);stop-opacity:1"/><stop offset="0.9" style="stop-color:rgb(73,122,190);stop-opacity:1"/><stop offset="1" style="stop-color:rgb(85,176,227);stop-opacity:1"/></linearGradient>
        <linearGradient id="_Linear80" x1="0" y1="0" x2="1" y2="0" gradientUnits="userSpaceOnUse" gradientTransform="matrix(99.7342,-126.486,126.486,99.7342,124.058,902.704)"><stop offset="0" style="stop-color:rgb(65,79,162);stop-opacity:1"/><stop offset="1" style="stop-color:rgb(104,128,192);stop-opacity:1"/></linearGradient>
        <linearGradient id="_Linear82" x1="0" y1="0" x2="1" y2="0" gradientUnits="userSpaceOnUse" gradientTransform="matrix(99.7342,-126.486,126.486,99.7342,99.2273,933.499)"><stop offset="0" style="stop-color:rgb(69,77,160);stop-opacity:1"/><stop offset="1" style="stop-color:rgb(111,127,190);stop-opacity:1"/></linearGradient>
        <linearGradient id="_Linear84" x1="0" y1="0" x2="1" y2="0" gradientUnits="userSpaceOnUse" gradientTransform="matrix(99.7342,-126.486,126.486,99.7342,74.3972,964.294)"><stop offset="0" style="stop-color:rgb(70,74,159);stop-opacity:1"/><stop offset="1" style="stop-color:rgb(118,125,188);stop-opacity:1"/></linearGradient>
        <linearGradient id="_Linear86" x1="0" y1="0" x2="1" y2="0" gradientUnits="userSpaceOnUse" gradientTransform="matrix(99.7342,-126.486,126.486,99.7342,49.567,995.089)"><stop offset="0" style="stop-color:rgb(75,72,157);stop-opacity:1"/><stop offset="1" style="stop-color:rgb(126,124,187);stop-opacity:1"/></linearGradient>
        <linearGradient id="_Linear88" x1="0" y1="0" x2="1" y2="0" gradientUnits="userSpaceOnUse" gradientTransform="matrix(99.7342,-126.486,126.486,99.7342,24.7368,1025.88)"><stop offset="0" style="stop-color:rgb(81,69,156);stop-opacity:1"/><stop offset="1" style="stop-color:rgb(132,121,184);stop-opacity:1"/></linearGradient>
        <linearGradient id="_Linear90" x1="0" y1="0" x2="1" y2="0" gradientUnits="userSpaceOnUse" gradientTransform="matrix(99.7342,-126.486,126.486,99.7342,-0.0934021,1056.68)"><stop offset="0" style="stop-color:rgb(84,65,154);stop-opacity:1"/><stop offset="1" style="stop-color:rgb(142,118,181);stop-opacity:1"/></linearGradient>
        <linearGradient id="_Linear92" x1="0" y1="0" x2="1" y2="0" gradientUnits="userSpaceOnUse" gradientTransform="matrix(99.7342,-126.486,126.486,99.7342,-24.9236,1087.47)"><stop offset="0" style="stop-color:rgb(91,61,152);stop-opacity:1"/><stop offset="0.8" style="stop-color:rgb(131,96,169);stop-opacity:1"/><stop offset="1" style="stop-color:rgb(151,115,179);stop-opacity:1"/></linearGradient>
    </defs>
</svg>
