<?xml version="1.0" encoding="UTF-8" standalone="no"?>
<!DOCTYPE svg PUBLIC "-//W3C//DTD SVG 1.1//EN" "http://www.w3.org/Graphics/SVG/1.1/DTD/svg11.dtd">
<svg width="100%" height="100%" viewBox="0 0 1000 1000" version="1.1" xmlns="http://www.w3.org/2000/svg" xmlns:xlink="http://www.w3.org/1999/xlink" xml:space="preserve" xmlns:serif="http://www.serif.com/" style="fill-rule:evenodd;clip-rule:evenodd;stroke-linejoin:round;stroke-miterlimit:2;">
    <g>
        <path d="M969.388,360.827C982.442,404.902 989.45,451.564 989.45,499.85C989.45,769.969 770.13,989.271 499.99,989.271C229.85,989.271 10.53,769.969 10.53,499.85C10.53,229.73 229.85,10.428 499.99,10.428C527.231,10.428 553.955,12.658 579.99,16.945C419.359,41.149 327.239,133.337 334.21,302.959L541.725,302.959C541.725,214.286 613.029,193.26 675.192,193.26C742.84,193.26 789.462,219.771 789.462,261.822C789.462,365.122 538.982,308.444 566.407,522.358L785.805,522.358C787.097,421.584 902.053,423.975 969.388,360.827ZM675.192,813.06C738.269,813.06 791.29,760.953 791.29,697.876C791.29,635.713 738.269,582.692 675.192,582.692C611.201,582.692 558.179,635.713 558.179,697.876C558.179,760.953 611.201,813.06 675.192,813.06Z"/>
    </g>
</svg>
